<svg width="51" height="51" viewBox="0 0 51 51" fill="none" xmlns="http://www.w3.org/2000/svg">
<path d="M43.4701 16.4142H32.9395V35.5004H50.193V26.9097L48.1808 19.9552C47.5742 17.858 45.6533 16.4142 43.4701 16.4142Z" fill="#FE7674"/>
<path d="M47.6737 26.8215L45.8804 20.6224C45.5712 19.5567 44.58 18.8109 43.4698 18.8109H35.3359V26.8215H47.6737Z" fill="#84DBFF"/>
<path d="M47.6762 26.8184H35.332V18.8077L47.6762 26.8184Z" fill="#CDD6E0"/>
<path d="M47.6737 26.8215L45.8804 20.6224C45.5712 19.5567 44.58 18.8109 43.4698 18.8109H35.3359L47.6737 26.8215Z" fill="#F2F2F2"/>
<path d="M3.18723 6.83228H29.7517C31.5111 6.83228 32.9389 8.25906 32.9389 10.0195V35.4993H0V10.0195C0 8.25916 1.42678 6.83228 3.18723 6.83228Z" fill="#696969"/>
<path d="M50.9996 35.4983V39.0998H0.00390625V35.4983H5.32658C6.56961 33.2672 8.96003 31.7585 11.701 31.7585C14.4314 31.7585 16.8218 33.2672 18.0755 35.4983H35.2016C36.4446 33.2672 38.8234 31.7585 41.5644 31.7585C44.3054 31.7585 46.6852 33.2672 47.9389 35.4983H50.9996Z" fill="#A4A4A4"/>
<path d="M46.6545 39.0776C46.6545 41.8887 44.3756 44.1676 41.5645 44.1676C38.7533 44.1676 36.4766 41.8887 36.4766 39.0776C36.4766 36.2664 38.7543 33.9875 41.5645 33.9875C44.3767 33.9875 46.6545 36.2664 46.6545 39.0776Z" fill="#696969"/>
<path d="M43.6118 39.0776C43.6118 40.2069 42.696 41.1217 41.5677 41.1217C40.4383 41.1217 39.5215 40.2069 39.5215 39.0776C39.5215 37.9482 40.4373 37.0334 41.5677 37.0334C42.696 37.0325 43.6118 37.9483 43.6118 39.0776Z" fill="#ACB3BA"/>
<path d="M16.7874 39.0774C16.7874 41.8886 14.5075 44.1674 11.6974 44.1674C8.88629 44.1674 6.60742 41.8886 6.60742 39.0774C6.60742 36.2663 8.88629 33.9874 11.6974 33.9874C14.5075 33.9874 16.7874 36.2663 16.7874 39.0774Z" fill="#696969"/>
<path d="M13.7416 39.0776C13.7416 40.2069 12.8268 41.1217 11.6975 41.1217C10.5681 41.1217 9.65234 40.2069 9.65234 39.0776C9.65234 37.9482 10.5682 37.0334 11.6975 37.0334C12.8267 37.0334 13.7416 37.9483 13.7416 39.0776Z" fill="#ACB3BA"/>
</svg>
