<svg width="71" height="71" viewBox="0 0 71 71" fill="none" xmlns="http://www.w3.org/2000/svg">
<mask id="mask0_230_652" style="mask-type:luminance" maskUnits="userSpaceOnUse" x="11" y="3" width="49" height="65">
<path d="M35.5 65.0834C35.5 65.0834 57.6875 47.3334 57.6875 28.1042C57.6875 15.8508 47.7534 5.91675 35.5 5.91675C23.2466 5.91675 13.3125 15.8508 13.3125 28.1042C13.3125 47.3334 35.5 65.0834 35.5 65.0834Z" fill="white" stroke="white" stroke-width="4" stroke-linejoin="round"/>
<path d="M35.5 36.9792C36.6655 36.9792 37.8196 36.7497 38.8963 36.3037C39.9731 35.8577 40.9515 35.2039 41.7756 34.3798C42.5997 33.5557 43.2534 32.5773 43.6994 31.5006C44.1454 30.4238 44.375 29.2697 44.375 28.1042C44.375 26.9388 44.1454 25.7847 43.6994 24.7079C43.2534 23.6312 42.5997 22.6528 41.7756 21.8287C40.9515 21.0046 39.9731 20.3508 38.8963 19.9048C37.8196 19.4588 36.6655 19.2292 35.5 19.2292C33.1462 19.2292 30.8888 20.1643 29.2244 21.8287C27.56 23.4931 26.625 25.7505 26.625 28.1042C26.625 30.458 27.56 32.7154 29.2244 34.3798C30.8888 36.0442 33.1462 36.9792 35.5 36.9792V36.9792Z" fill="black" stroke="black" stroke-width="4" stroke-linejoin="round"/>
</mask>
<g mask="url(#mask0_230_652)">
<path d="M0 0H71V71H0V0Z" fill="#E41C19"/>
</g>
<circle cx="35.5" cy="28.5" r="12.5" fill="#ECEAD9"/>
</svg>
